<?xml version="1.0" encoding="utf-8"?>
<!-- Generator: Adobe Illustrator 15.0.2, SVG Export Plug-In . SVG Version: 6.00 Build 0)  -->
<!DOCTYPE svg PUBLIC "-//W3C//DTD SVG 1.1//EN" "http://www.w3.org/Graphics/SVG/1.1/DTD/svg11.dtd">
<svg version="1.1" id="ASML_logo_master" xmlns="http://www.w3.org/2000/svg" xmlns:xlink="http://www.w3.org/1999/xlink" x="0px"
	 y="0px" width="1700.787px" height="850.393px" viewBox="0 0 1700.787 850.393" enable-background="new 0 0 1700.787 850.393"
	 xml:space="preserve">
<g>
	<g>
		<polygon fill="#0F238C" points="1065.83,566.929 1102.68,388.346 1116.71,566.929 1196.223,566.929 1159.373,283.464 
			1074.333,283.464 1034.646,453.542 994.964,283.464 909.924,283.464 873.072,566.929 952.443,566.929 966.617,388.346 
			1003.468,566.929 		"/>
		<g>
			<polygon fill="#0F238C" points="1312.442,507.401 1312.442,283.464 1235.907,283.464 1235.907,566.929 1417.324,566.929 
				1417.324,507.401 			"/>
		</g>
		<g>
			<path fill="#0F238C" d="M535.749,283.464H439.37l-85.039,283.465h85.04l11.338-51.023h73.701l11.339,51.023h85.04
				L535.749,283.464z M487.56,345.826l25.512,116.22l-51.024,0.001L487.56,345.826z"/>
		</g>
	</g>
	<g>
		<path fill="#0F238C" d="M824.881,362.835c-70.432-61.604-180.339-36.558-181.417,19.843
			c-15.981-104.645,110.563-126.492,181.41-93.544C826.136,305.936,827.401,324.026,824.881,362.835z"/>
		<path fill="#0F238C" d="M766.445,396.213c-17.745-6.926-43.562-13.227-43.599-33.403c-0.015-8.241,3.375-17.189,19.83-22.651
			c-56.693,5.669-75.599,74.633-12.896,108.91c10.928,5.974,29.904,12.311,29.904,32.82c0,23.957-26.32,32.617-43.634,32.251
			c-28.761-0.605-51.885-10.652-78.256-29.417v68.032c31.207,13.434,82.039,28.928,132.996,13.256
			c41.183-12.666,76.768-47.236,76.768-84.123C847.56,421.866,795.467,407.542,766.445,396.213z"/>
	</g>
</g>
</svg>
